<svg width="14" height="14" viewBox="0 0 14 14" fill="none" xmlns="http://www.w3.org/2000/svg"><path d="M12.966 0H1.033C.462 0-.001.463-.001 1.033v11.934C0 13.537.462 14 1.033 14h11.933c.57 0 1.033-.463 1.033-1.034V1.034A1.033 1.033 0 0012.966 0zM4.172 11.927H2.067V5.24h2.105v6.687zM3.12 4.314c-.67 0-1.213-.51-1.213-1.209A1.19 1.19 0 013.12 1.897c.67 0 1.213.51 1.213 1.208S3.79 4.314 3.12 4.314zm8.811 7.618H9.826V8.28c0-1.077-.458-1.41-1.049-1.41-.624 0-1.236.47-1.236 1.438v3.625H5.437V5.245H7.46v.927h.027c.203-.412.915-1.114 2.001-1.114 1.175 0 2.443.697 2.443 2.738v4.136z" fill="currentColor"/></svg>