<svg width="18" height="14" viewBox="0 0 18 14" fill="none" xmlns="http://www.w3.org/2000/svg"><path d="M5.66 14c6.793 0 10.508-5.387 10.508-10.058 0-.153 0-.305-.01-.457A7.343 7.343 0 0018 1.655a7.63 7.63 0 01-2.121.556A3.58 3.58 0 0017.503.256a7.604 7.604 0 01-2.346.858A3.75 3.75 0 0013.062.047a3.84 3.84 0 00-2.341.372 3.606 3.606 0 00-1.623 1.658 3.4 3.4 0 00-.234 2.261 10.854 10.854 0 01-4.216-1.072A10.413 10.413 0 011.253.645 3.407 3.407 0 00.848 3.22a3.541 3.541 0 001.548 2.143A3.791 3.791 0 01.72 4.92v.045c0 .816.295 1.607.835 2.239A3.727 3.727 0 003.683 8.43a3.847 3.847 0 01-1.668.061 3.548 3.548 0 001.314 1.757 3.81 3.81 0 002.137.698 7.624 7.624 0 01-4.587 1.516c-.294 0-.587-.018-.879-.05a10.799 10.799 0 005.66 1.584" fill="currentColor"/></svg>